<?xml version="1.0" encoding="utf-8"?>
<!-- Generator: Adobe Illustrator 22.1.0, SVG Export Plug-In . SVG Version: 6.00 Build 0)  -->
<svg version="1.1" id="Layer_1" xmlns="http://www.w3.org/2000/svg" xmlns:xlink="http://www.w3.org/1999/xlink" x="0px" y="0px"
	 viewBox="0 0 800 800" style="enable-background:new 0 0 800 800;" xml:space="preserve">
<style type="text/css">
	.st0{fill:none;stroke:#000000;stroke-width:2;stroke-miterlimit:10;}
</style>
<g>
	<path class="st0" d="M193.6,405h-27.4l-5.9,21.7h-17.1l27-84.4H190l27.1,84.4h-17.7L193.6,405z M189.9,391.9l-2.5-9.2
		c-2.6-8.8-4.9-18.5-7.4-27.6h-0.5c-2.2,9.2-4.7,18.8-7.2,27.6l-2.5,9.2H189.9z"/>
	<path class="st0" d="M240.7,420h-0.3l-1.5,6.7h-13.1v-91h16.6v22.9l-0.3,10.3c5-4.6,11.4-7.6,17.7-7.6c15.7,0,25.2,12.9,25.2,32.4
		c0,22-13.1,34.7-27.1,34.7C252.1,428.3,245.9,425.3,240.7,420z M267.7,394c0-12.2-3.9-18.9-12.7-18.9c-4.3,0-8.2,2.2-12.7,6.6v28
		c4,3.5,8.2,4.8,11.6,4.8C261.8,414.5,267.7,407.9,267.7,394z"/>
	<path class="st0" d="M295.2,394.9c0-21.3,14.7-33.6,30.7-33.6s30.7,12.3,30.7,33.6c0,21.1-14.7,33.4-30.7,33.4
		S295.2,416,295.2,394.9z M339.4,394.9c0-12.1-4.9-19.9-13.6-19.9s-13.6,7.9-13.6,19.9c0,12,4.9,19.7,13.6,19.7
		S339.4,406.9,339.4,394.9z"/>
	<path class="st0" d="M369.8,402.8v-39.9h16.8v37.7c0,9.9,2.7,13.3,8.9,13.3c5.2,0,8.7-2.3,13-8v-43.1h16.8v63.8h-13.7l-1.3-9.1
		h-0.5c-5.5,6.5-11.6,10.7-20.4,10.7C375.8,428.3,369.8,418.7,369.8,402.8z"/>
	<path class="st0" d="M445.5,404.4v-28.3h-9v-12.4l9.8-0.8l1.9-17.1h14v17.1H478v13.2h-15.7v28.3c0,7.3,3,10.7,8.7,10.7
		c2.1,0,4.6-0.7,6.3-1.4l2.7,12.2c-3.4,1.1-7.9,2.4-13.5,2.4C451.3,428.3,445.5,418.7,445.5,404.4z"/>
	<path class="st0" d="M516.9,362.9h13.7l1.1,8.6h0.5c5.4-5.6,11.3-10.1,19.6-10.1c9.1,0,14.5,4.1,17.6,11.2
		c5.8-6.2,12-11.2,20.3-11.2c13.6,0,19.8,9.6,19.8,25.6v39.8h-16.8V389c0-9.8-2.8-13.3-8.9-13.3c-3.6,0-7.8,2.4-12.3,7.2v43.9h-16.8
		V389c0-9.8-2.9-13.3-8.9-13.3c-3.6,0-7.8,2.4-12.3,7.2v43.9h-16.6V362.9z"/>
	<path class="st0" d="M622.8,394.9c0-20.7,14.5-33.6,29.8-33.6c17.6,0,26.7,12.9,26.7,30.6c0,3.1-0.3,6.2-0.8,7.6h-39.3
		c1.4,10.5,8.2,16,17.7,16c5.2,0,9.8-1.6,14.4-4.4l5.7,10.3c-6.3,4.3-14.4,7.1-22.3,7.1C636.7,428.3,622.8,415.9,622.8,394.9z
		 M664.9,388.4c0-8.7-3.9-14.1-12.1-14.1c-6.7,0-12.7,4.8-13.9,14.1H664.9z"/>
</g>
<g>
</g>
<g>
</g>
<g>
</g>
<g>
</g>
<g>
</g>
<g>
</g>
<g>
</g>
<g>
</g>
<g>
</g>
<g>
</g>
<g>
</g>
</svg>
